<svg width="13" height="14" viewBox="0 0 13 14" fill="none" xmlns="http://www.w3.org/2000/svg">
<path opacity="0.4" fill-rule="evenodd" clip-rule="evenodd" d="M8.77466 12.1334C8.55945 13.1983 7.62301 13.9999 6.49999 13.9999C5.37696 13.9999 4.44052 13.1983 4.2254 12.1334H0L1.8571 8.40001V4.66662C1.8571 2.08935 3.93584 0 6.49999 0C9.06421 0 11.1429 2.08935 11.1429 4.66662V8.40001L13 12.1334H8.77466ZM6.49999 13.0667C7.10557 13.0667 7.61566 12.676 7.8076 12.1334H5.19246C5.38431 12.676 5.89441 13.0667 6.49999 13.0667ZM10.2143 8.40001V4.66662C10.2143 2.60491 8.55135 0.933364 6.49999 0.933364C4.44861 0.933364 2.7857 2.60491 2.7857 4.66662V8.40001L1.39281 11.2001H11.6071L10.2143 8.40001Z" fill="black"/>
</svg>
