<svg width="13" height="20" viewBox="0 0 13 20" fill="none" xmlns="http://www.w3.org/2000/svg">
<path opacity="0.4" fill-rule="evenodd" clip-rule="evenodd" d="M0.998384 3.75004C0.998384 1.67898 3.01311 -1.19805e-05 5.49831 -1.19805e-05C7.98361 -1.19805e-05 9.99825 1.67898 9.99825 3.75004V15.0001C9.99825 16.3808 8.6551 17.4999 6.99827 17.4999C5.34144 17.4999 3.99829 16.3808 3.99829 15.0001V5.00006H5.49831V15.0001C5.49831 15.6904 6.16982 16.2501 6.99827 16.2501C7.82673 16.2501 8.49831 15.6904 8.49831 15.0001V3.75004C8.49831 2.3693 7.15515 1.25003 5.49831 1.25003C3.8414 1.25003 2.49825 2.3693 2.49825 3.75004V15.0001C2.49825 17.0712 4.51299 18.7501 6.99827 18.7501C9.48355 18.7501 11.4983 17.0712 11.4983 15.0001V2.50005H12.9982V15.625C12.6285 18.0907 10.0575 20.0001 6.99827 20.0001C3.9392 20.0001 1.36814 18.0907 0.998209 15.625L0.998384 3.75004Z" fill="black"/>
</svg>
