<?xml version="1.0" encoding="utf-8"?>
<!-- Generator: Adobe Illustrator 24.1.1, SVG Export Plug-In . SVG Version: 6.00 Build 0)  -->
<svg version="1.1" id="Слой_1" xmlns="http://www.w3.org/2000/svg" xmlns:xlink="http://www.w3.org/1999/xlink" x="0px" y="0px"
	 viewBox="0 0 22 22" enable-background="new 0 0 22 22" xml:space="preserve">
<path fill="#E8E8EB" d="M11,0c6.1,0,11,4.9,11,11c0,6.1-4.9,11-11,11C4.9,22,0,17.1,0,11C0,4.9,4.9,0,11,0z"/>
<path opacity="0.5" enable-background="new    " d="M9.6,17h2.2v-6.1h1.5l0.2-2h-1.7c0,0,0-0.8,0-1.2c0-0.5,0.1-0.7,0.5-0.7
	c0.3,0,1.2,0,1.2,0V5c0,0-1.2,0-1.5,0c-1.6,0-2.4,0.8-2.4,2.3c0,1.3,0,1.6,0,1.6H8.5V11h1.1V17z"/>
</svg>
