<svg width="14" height="15" viewBox="0 0 14 15" fill="none" xmlns="http://www.w3.org/2000/svg">
<path opacity="0.6" fill-rule="evenodd" clip-rule="evenodd" d="M13.5382 5.88736L12.457 6.51837C12.5177 6.84966 12.5575 7.18817 12.5575 7.53755C12.5575 7.88678 12.5177 8.22529 12.457 8.5566L13.5382 9.18756C13.9799 9.44528 14.1312 10.0161 13.8763 10.4625L12.9528 12.0791C12.6978 12.5254 12.1331 12.6784 11.6914 12.4207L10.599 11.7833C10.0887 12.2224 9.50857 12.5813 8.86374 12.8121V13.6041C8.86374 14.1195 8.45033 14.5375 7.94026 14.5375H6.09341C5.58351 14.5375 5.17009 14.1195 5.17009 13.6041V12.8121C4.52526 12.5813 3.9451 12.2224 3.4347 11.7833L2.34241 12.4207C1.90069 12.6784 1.33594 12.5254 1.08095 12.0791L0.157546 10.4625C-0.0974309 10.0161 0.0539047 9.44528 0.495541 9.18756L1.57677 8.5566C1.51617 8.22529 1.47637 7.88678 1.47637 7.53755C1.47637 7.18817 1.51617 6.84966 1.57677 6.51837L0.495541 5.88736C0.0539047 5.62967 -0.0974309 5.05876 0.157546 4.61249L1.08095 2.99587C1.33594 2.54941 1.90069 2.39639 2.34241 2.65422L3.4347 3.29165C3.9451 2.85243 4.52526 2.49362 5.17009 2.26292V1.47085C5.17009 0.955432 5.58351 0.537537 6.09341 0.537537H7.94026C8.45033 0.537537 8.86374 0.955432 8.86374 1.47085V2.26292C9.50857 2.49362 10.0887 2.85243 10.599 3.29165L11.6914 2.65422C12.1331 2.39639 12.6978 2.54941 12.9528 2.99587L13.8763 4.61249C14.1312 5.05876 13.9799 5.62967 13.5382 5.88736ZM12.8457 4.67491L12.384 3.86658C12.2564 3.6435 11.9741 3.56689 11.7533 3.69582L10.4704 4.44445C9.81926 3.70206 8.93932 3.16953 7.94026 2.96454V1.93748C7.94026 1.67975 7.73355 1.47085 7.47858 1.47085H6.55518C6.3001 1.47085 6.09341 1.67975 6.09341 1.93748V2.96454C5.09443 3.16953 4.21449 3.70206 3.5634 4.44445L2.28055 3.69582C2.05969 3.56689 1.77732 3.6435 1.64978 3.86658L1.18816 4.67491C1.06063 4.89812 1.1363 5.18365 1.35707 5.31244L2.64509 6.06403C2.49167 6.52822 2.39976 7.021 2.39976 7.53755C2.39976 8.05397 2.49167 8.54668 2.64509 9.01098L1.35707 9.76252C1.1363 9.89146 1.06063 10.1768 1.18816 10.4L1.64978 11.2082C1.77732 11.4314 2.05969 11.5079 2.28055 11.379L3.56332 10.6305C4.21449 11.3729 5.09443 11.9054 6.09341 12.1104V13.1375C6.09341 13.3952 6.3001 13.6041 6.55518 13.6041H7.47858C7.73355 13.6041 7.94026 13.3952 7.94026 13.1375V12.1104C8.93932 11.9054 9.81926 11.3729 10.4704 10.6305L11.7533 11.379C11.9741 11.5079 12.2564 11.4314 12.384 11.2082L12.8457 10.4C12.9732 10.1768 12.8974 9.89146 12.6767 9.76252L11.3887 9.01098C11.5422 8.54668 11.634 8.05397 11.634 7.53755C11.634 7.021 11.5422 6.52822 11.3887 6.06403L12.6767 5.31244C12.8974 5.18365 12.9732 4.89812 12.8457 4.67491ZM7.01688 9.87072C5.74185 9.87072 4.70833 8.82612 4.70833 7.53755C4.70833 6.24871 5.74185 5.20411 7.01688 5.20411C8.29182 5.20411 9.32543 6.24871 9.32543 7.53755C9.32543 8.82612 8.29182 9.87072 7.01688 9.87072ZM7.01688 6.13747C6.25191 6.13747 5.63179 6.76427 5.63179 7.53755C5.63179 8.31065 6.25191 8.93736 7.01688 8.93736C7.78184 8.93736 8.40196 8.31065 8.40196 7.53755C8.40196 6.76427 7.78184 6.13747 7.01688 6.13747Z" fill="white"/>
</svg>
