<?xml version="1.0" encoding="utf-8"?>
<!-- Generator: Adobe Illustrator 24.1.1, SVG Export Plug-In . SVG Version: 6.00 Build 0)  -->
<svg version="1.1" id="Слой_1" xmlns="http://www.w3.org/2000/svg" xmlns:xlink="http://www.w3.org/1999/xlink" x="0px" y="0px"
	 viewBox="0 0 22 22" enable-background="new 0 0 22 22" xml:space="preserve">
<path fill="#E8E8EB" d="M11,0c6.1,0,11,4.9,11,11c0,6.1-4.9,11-11,11C4.9,22,0,17.1,0,11C0,4.9,4.9,0,11,0z"/>
<path opacity="0.5" enable-background="new    " d="M13.1,8.9C12.6,8.4,11.8,8,11,8c-0.8,0-1.6,0.3-2.1,0.9H5.3V7.4
	c0-0.8,0.4-1.5,1-1.9V8h0.5V5.2c0.1,0,0.2-0.1,0.3-0.1V8h0.5V5c0,0,0,0,0,0c0,0,0,0,0,0h0.3v3h0.5V5h6.2c1.3,0,2.3,1.1,2.3,2.4h0
	v1.6H13.1z M14.1,6c-0.2,0-0.4,0.2-0.4,0.4v1.3c0,0.2,0.2,0.4,0.4,0.4h1.2c0.2,0,0.4-0.2,0.4-0.4V6.4c0-0.2-0.2-0.4-0.4-0.4H14.1z
	 M11.9,8.9c0.2,0.1,0.4,0.2,0.6,0.4c0.5,0.4,0.8,1.1,0.8,1.8c0,1.3-1,2.4-2.3,2.4c-1.2,0-2.3-1.1-2.3-2.4c0-0.7,0.3-1.3,0.8-1.8
	C9.7,9.1,9.9,9,10.1,8.9c0.3-0.1,0.6-0.2,0.9-0.2C11.3,8.7,11.6,8.8,11.9,8.9z M9.3,11.1c0,1,0.7,1.7,1.7,1.7c0.9,0,1.7-0.8,1.7-1.7
	c0-1-0.7-1.7-1.7-1.7C10.1,9.3,9.3,10.1,9.3,11.1z M14.5,17H7.5c-1.3,0-2.3-1.1-2.3-2.4V9.3h3.3c-0.3,0.5-0.5,1.1-0.5,1.8
	c0,1.7,1.3,3.1,2.9,3.1c1.6,0,2.9-1.4,2.9-3.1c0-0.7-0.2-1.3-0.5-1.8h3.4v5.4C16.7,15.9,15.7,17,14.5,17z"/>
</svg>
