<?xml version="1.0" encoding="utf-8"?>
<!-- Generator: Adobe Illustrator 24.1.1, SVG Export Plug-In . SVG Version: 6.00 Build 0)  -->
<svg version="1.1" id="Слой_1" xmlns="http://www.w3.org/2000/svg" xmlns:xlink="http://www.w3.org/1999/xlink" x="0px" y="0px"
	 viewBox="0 0 22 22" enable-background="new 0 0 22 22" xml:space="preserve">
<path fill="#E8E8EB" d="M11,0c6.1,0,11,4.9,11,11c0,6.1-4.9,11-11,11C4.9,22,0,17.1,0,11C0,4.9,4.9,0,11,0z"/>
<path opacity="0.5" enable-background="new " d="M6.8,8.2c0.7,0,1.3-0.6,1.3-1.4c0-0.7-0.6-1.4-1.3-1.4c-0.7,0-1.3,0.6-1.3,1.4
	C5.5,7.6,6.1,8.2,6.8,8.2z M5.7,16.5H8V9.2H5.7V16.5z M13,11c-0.9,0-1.4,0.6-1.4,1.6v3.8H9.4V9.2h2.2v1c0,0,0.7-1.2,2.2-1.2
	c1.6,0,2.7,0.9,2.7,2.9v4.6h-2.3v-3.8C14.2,11.6,13.8,11,13,11z"/>
</svg>
