<svg width="15" height="20" viewBox="0 0 15 20" fill="none" xmlns="http://www.w3.org/2000/svg">
<path opacity="0.4" fill-rule="evenodd" clip-rule="evenodd" d="M6.52113 20C6.18216 20 5.90737 19.7202 5.90737 19.3751C5.90737 19.03 6.18216 18.7502 6.52113 18.7502H7.13471V17.472C4.10502 17.1936 1.53995 14.8742 0.998291 11.875H2.22563C2.78422 14.3791 5.12064 16.25 7.74837 16.25C10.376 16.25 12.7124 14.3791 13.271 11.875H14.4984C13.9566 14.8742 11.3916 17.1936 8.36195 17.472V18.7502H8.97561C9.31449 18.7502 9.58929 19.03 9.58929 19.3751C9.58929 19.7202 9.31449 20 8.97561 20H6.52113ZM7.74837 15.0001C5.37599 15.0001 3.45287 13.0414 3.45287 10.6251V4.37523C3.45287 1.95895 5.37599 0 7.74837 0C10.1206 0 12.0438 1.95895 12.0438 4.37523V10.6251C12.0438 13.0414 10.1206 15.0001 7.74837 15.0001ZM10.8165 4.37523C10.8165 2.64932 9.44283 1.25003 7.74837 1.25003C6.05382 1.25003 4.68013 2.64932 4.68013 4.37523V10.6251C4.68013 12.351 6.05382 13.7501 7.74837 13.7501C9.44283 13.7501 10.8165 12.351 10.8165 10.6251V4.37523Z" fill="black"/>
</svg>
