<svg width="10" height="14" viewBox="0 0 10 14" fill="none" xmlns="http://www.w3.org/2000/svg">
<path opacity="0.4" fill-rule="evenodd" clip-rule="evenodd" d="M6.90903 13.5001H2.59084C1.15999 13.5001 0 12.4088 0 11.0625V9.43756C0 8.37044 0.733572 7.47328 1.74853 7.14311C1.1957 6.44139 0.863583 5.54255 0.863583 4.56261C0.863583 2.3189 2.60361 0.5 4.75002 0.5C6.89635 0.5 8.63629 2.3189 8.63629 4.56261C8.63629 5.54255 8.30418 6.44139 7.75143 7.14311C8.76639 7.47328 9.49996 8.37044 9.49996 9.43756V11.0625C9.49996 12.4088 8.33997 13.5001 6.90903 13.5001ZM7.7727 4.56261C7.7727 2.76761 6.41945 1.31253 4.75002 1.31253C3.0806 1.31253 1.72733 2.76761 1.72733 4.56261C1.72733 6.35747 3.0806 7.81255 4.75002 7.81255C6.41945 7.81255 7.7727 6.35747 7.7727 4.56261ZM8.63629 9.64073C8.63629 8.77713 7.93968 8.05759 7.00592 7.86628C6.36947 8.34212 5.59216 8.62502 4.75002 8.62502C3.90788 8.62502 3.13049 8.34212 2.49404 7.86628C1.56036 8.05759 0.863583 8.77713 0.863583 9.64073V10.8594C0.863583 11.869 1.8127 12.6876 2.98346 12.6876H6.5165C7.68733 12.6876 8.63629 11.869 8.63629 10.8594V9.64073Z" fill="black"/>
</svg>
