<svg width="16" height="16" viewBox="0 0 16 16" fill="none" xmlns="http://www.w3.org/2000/svg">
<path opacity="0.4" fill-rule="evenodd" clip-rule="evenodd" d="M14.8239 9.46631H9.46672V14.8238C9.46672 15.4151 8.98705 15.895 8.39536 15.895C7.80366 15.895 7.32391 15.4151 7.32391 14.8238V9.46631H1.96681C1.37503 9.46631 0.895264 8.98672 0.895264 8.39505C0.895264 7.80343 1.37503 7.32369 1.96681 7.32369H7.32391V1.96637C7.32391 1.3747 7.80366 0.89502 8.39536 0.89502C8.98705 0.89502 9.46672 1.3747 9.46672 1.96637V7.32369H14.8239C15.4157 7.32369 15.8953 7.80343 15.8953 8.39505C15.8953 8.98672 15.4157 9.46631 14.8239 9.46631Z" fill="white"/>
</svg>
