<svg display="none">
<symbol id="bell" viewBox="0 0 13 14">
<path opacity="0.4" d="M8.77466 12.1334C8.55945 13.1983 7.62301 13.9999 6.49999 13.9999C5.37696 13.9999 4.44052 13.1983 4.2254 12.1334H0L1.8571 8.40001V4.66662C1.8571 2.08935 3.93584 0 6.49999 0C9.06421 0 11.1429 2.08935 11.1429 4.66662V8.40001L13 12.1334H8.77466ZM6.49999 13.0667C7.10557 13.0667 7.61566 12.676 7.8076 12.1334H5.19246C5.38431 12.676 5.89441 13.0667 6.49999 13.0667ZM10.2143 8.40001V4.66662C10.2143 2.60491 8.55135 0.933364 6.49999 0.933364C4.44861 0.933364 2.7857 2.60491 2.7857 4.66662V8.40001L1.39281 11.2001H11.6071L10.2143 8.40001Z" fill="black"/>
</symbol>
<symbol id="twitter" viewBox="0 0 22 23">
<path d="M11 1.49999C16.5228 1.49999 21 5.97716 21 11.5C21 17.0229 16.5228 21.5 11 21.5C5.47719 21.5 1.00003 17.0229 1.00003 11.5C1.00003 5.97716 5.47719 1.49999 11 1.49999Z" fill="#E8E8EB"/>
<path opacity="0.5" d="M4.96691 14.9759C6.05697 15.6206 7.35155 15.9969 8.74228 15.9969C13.3153 15.9969 15.8986 12.4335 15.7431 9.23743C16.2241 8.91719 16.6418 8.51698 16.9719 8.06117C16.5301 8.24194 16.0554 8.3642 15.5573 8.41895C16.0657 8.13808 16.4563 7.69267 16.6402 7.16186C16.1643 7.42231 15.6371 7.61152 15.0762 7.71327C14.6271 7.27162 13.9871 6.99573 13.2784 6.99573C11.6889 6.99573 10.5202 8.36448 10.8791 9.78608C8.83215 9.69115 7.01736 8.78649 5.80287 7.41177C5.15767 8.43306 5.46817 9.76934 6.56507 10.4454C6.16119 10.4337 5.78126 10.3312 5.44914 10.1613C5.42268 11.214 6.24014 12.1984 7.42473 12.4182C7.07811 12.505 6.6985 12.525 6.31273 12.457C6.62591 13.3597 7.53564 14.0165 8.61327 14.0348C7.57795 14.7838 6.27368 15.1182 4.96691 14.9759Z" fill="black"/>
</symbol>
<symbol id="smile" viewBox="0 0 512 512">
<path d="m256 512c-68.38 0-132.667-26.629-181.02-74.98-48.351-48.353-74.98-112.64-74.98-181.02s26.629-132.667 74.98-181.02c48.353-48.351 112.64-74.98 181.02-74.98s132.667 26.629 181.02 74.98c48.351 48.353 74.98 112.64 74.98 181.02s-26.629 132.667-74.98 181.02c-48.353 48.351-112.64 74.98-181.02 74.98zm0-472c-119.103 0-216 96.897-216 216s96.897 216 216 216 216-96.897 216-216-96.897-216-216-216zm93.737 260.188c-9.319-5.931-21.681-3.184-27.61 6.136-.247.387-25.137 38.737-67.127 38.737s-66.88-38.35-67.127-38.737c-5.93-9.319-18.291-12.066-27.61-6.136s-12.066 18.292-6.136 27.61c1.488 2.338 37.172 57.263 100.873 57.263s99.385-54.924 100.873-57.263c5.93-9.319 3.183-21.68-6.136-27.61zm-181.737-135.188c13.807 0 25 11.193 25 25s-11.193 25-25 25-25-11.193-25-25 11.193-25 25-25zm150 25c0 13.807 11.193 25 25 25s25-11.193 25-25-11.193-25-25-25-25 11.193-25 25z"/>
</symbol>
<symbol id="search" viewBox="0 0 15 14">
<path opacity="0.5" fill-rule="evenodd" clip-rule="evenodd" d="M14.3637 13.866C14.1867 14.04 13.9 14.04 13.723 13.866L10.0951 10.2958C9.0828 11.1041 7.79397 11.5901 6.38873 11.5901C3.13649 11.5901 0.5 8.99556 0.5 5.79508C0.5 2.59454 3.13649 3.05176e-05 6.38873 3.05176e-05C9.64097 3.05176e-05 12.2776 2.59454 12.2776 5.79508C12.2776 7.29154 11.6962 8.65109 10.7499 9.67925L14.3637 13.2354C14.5406 13.4097 14.5406 13.6919 14.3637 13.866ZM6.38873 0.891622C3.63675 0.891622 1.40588 3.08689 1.40588 5.79508C1.40588 8.50324 3.63675 10.6986 6.38873 10.6986C9.14063 10.6986 11.3715 8.50324 11.3715 5.79508C11.3715 3.08689 9.14063 0.891622 6.38873 0.891622Z" fill="black"/>
</symbol>
<symbol id="person" viewBox="0 0 10 14">
<path opacity="0.4" fill-rule="evenodd" clip-rule="evenodd" d="M6.90903 13.5001H2.59084C1.15999 13.5001 0 12.4088 0 11.0625V9.43756C0 8.37044 0.733572 7.47328 1.74853 7.14311C1.1957 6.44139 0.863583 5.54255 0.863583 4.56261C0.863583 2.3189 2.60361 0.5 4.75002 0.5C6.89635 0.5 8.63629 2.3189 8.63629 4.56261C8.63629 5.54255 8.30418 6.44139 7.75143 7.14311C8.76639 7.47328 9.49996 8.37044 9.49996 9.43756V11.0625C9.49996 12.4088 8.33997 13.5001 6.90903 13.5001ZM7.7727 4.56261C7.7727 2.76761 6.41945 1.31253 4.75002 1.31253C3.0806 1.31253 1.72733 2.76761 1.72733 4.56261C1.72733 6.35747 3.0806 7.81255 4.75002 7.81255C6.41945 7.81255 7.7727 6.35747 7.7727 4.56261ZM8.63629 9.64073C8.63629 8.77713 7.93968 8.05759 7.00592 7.86628C6.36947 8.34212 5.59216 8.62502 4.75002 8.62502C3.90788 8.62502 3.13049 8.34212 2.49404 7.86628C1.56036 8.05759 0.863583 8.77713 0.863583 9.64073V10.8594C0.863583 11.869 1.8127 12.6876 2.98346 12.6876H6.5165C7.68733 12.6876 8.63629 11.869 8.63629 10.8594V9.64073Z" fill="black"/>
</symbol>
<symbol id="microphone" viewBox="0 0 15 20">
<path opacity="0.4" fill-rule="evenodd" clip-rule="evenodd" d="M6.52113 20C6.18216 20 5.90737 19.7202 5.90737 19.3751C5.90737 19.03 6.18216 18.7502 6.52113 18.7502H7.13471V17.472C4.10502 17.1936 1.53995 14.8742 0.998291 11.875H2.22563C2.78422 14.3791 5.12064 16.25 7.74837 16.25C10.376 16.25 12.7124 14.3791 13.271 11.875H14.4984C13.9566 14.8742 11.3916 17.1936 8.36195 17.472V18.7502H8.97561C9.31449 18.7502 9.58929 19.03 9.58929 19.3751C9.58929 19.7202 9.31449 20 8.97561 20H6.52113ZM7.74837 15.0001C5.37599 15.0001 3.45287 13.0414 3.45287 10.6251V4.37523C3.45287 1.95895 5.37599 0 7.74837 0C10.1206 0 12.0438 1.95895 12.0438 4.37523V10.6251C12.0438 13.0414 10.1206 15.0001 7.74837 15.0001ZM10.8165 4.37523C10.8165 2.64932 9.44283 1.25003 7.74837 1.25003C6.05382 1.25003 4.68013 2.64932 4.68013 4.37523V10.6251C4.68013 12.351 6.05382 13.7501 7.74837 13.7501C9.44283 13.7501 10.8165 12.351 10.8165 10.6251V4.37523Z" fill="black"/>
</symbol>
<symbol id="linkedin" viewBox="0 0 20 21">
<path fill-rule="evenodd" clip-rule="evenodd" d="M10 0.499988C15.5229 0.499988 20 4.97716 20 10.5C20 16.0229 15.5229 20.5 10 20.5C4.47712 20.5 -3.39746e-05 16.0229 -3.39746e-05 10.5C-3.39746e-05 4.97716 4.47712 0.499988 10 0.499988Z" fill="#E8E8EB"/>
</symbol>
<symbol id="instagram" viewBox="0 0 22 23">
<path fill-rule="evenodd" clip-rule="evenodd" d="M11 1.49999C16.5229 1.49999 21 5.97716 21 11.5C21 17.0229 16.5229 21.5 11 21.5C5.47716 21.5 1.00001 17.0229 1.00001 11.5C1.00001 5.97716 5.47716 1.49999 11 1.49999Z" fill="#E8E8EB"/>
<path opacity="0.5" fill-rule="evenodd" clip-rule="evenodd" d="M13.2318 9.33501C12.6979 8.77276 11.9563 8.42349 11.1357 8.42349C10.3151 8.42349 9.57354 8.77276 9.04006 9.33501H5.39453V7.78481C5.39453 6.98931 5.77421 6.28631 6.35517 5.85887V8.40031H6.82139V5.59455C6.92702 5.55064 7.03685 5.5145 7.14974 5.48731V8.40031H7.61588V5.4259C7.62376 5.42581 7.63154 5.42559 7.63931 5.42537C7.64905 5.42508 7.65877 5.4248 7.66861 5.4248H7.93789V8.40031H8.40411V5.4248H14.6181C15.8738 5.4248 16.8922 6.48148 16.8922 7.78481H16.8919V9.33501H13.2318ZM14.2587 6.41152C14.057 6.41152 13.8937 6.58108 13.8937 6.79009V8.09432C13.8937 8.30333 14.057 8.47289 14.2587 8.47289H15.4878C15.6894 8.47289 15.8527 8.30333 15.8527 8.09432V6.79009C15.8527 6.58108 15.6894 6.41152 15.4878 6.41152H14.2587ZM12.0706 9.33501C12.2744 9.43133 12.4619 9.55783 12.6283 9.70885C13.1022 10.1406 13.4023 10.7731 13.4023 11.4772C13.4023 12.7745 12.3856 13.8296 11.1357 13.8296C9.88612 13.8296 8.86941 12.7745 8.86941 11.4772C8.86941 10.7731 9.16948 10.1406 9.64346 9.70885C9.80951 9.55783 9.99727 9.43133 10.2009 9.33501C10.4862 9.20054 10.8027 9.12478 11.1357 9.12478C11.469 9.12478 11.7855 9.20054 12.0706 9.33501ZM9.46813 11.4772C9.46813 12.4374 10.218 13.2157 11.1432 13.2157C12.0683 13.2157 12.8183 12.4374 12.8183 11.4772C12.8183 10.5171 12.0683 9.73889 11.1432 9.73889C10.218 9.73889 9.46813 10.5171 9.46813 11.4772ZM14.6181 17.4205H7.66861C6.41291 17.4205 5.39453 16.3641 5.39453 15.0605V9.70885H8.73824C8.39576 10.2079 8.19391 10.8178 8.19391 11.4772C8.19391 13.1635 9.51111 14.5309 11.1357 14.5309C12.7605 14.5309 14.0779 13.1635 14.0779 11.4772C14.0779 10.8178 13.8757 10.2079 13.5335 9.70885H16.8922V15.0605C16.8922 16.3641 15.8741 17.4205 14.6181 17.4205Z" fill="black"/>
</symbol>
<symbol id="gear" viewBox="0 0 14 15">
<path opacity="0.6" fill-rule="evenodd" clip-rule="evenodd" d="M13.5382 5.88736L12.457 6.51837C12.5177 6.84966 12.5575 7.18817 12.5575 7.53755C12.5575 7.88678 12.5177 8.22529 12.457 8.5566L13.5382 9.18756C13.9799 9.44528 14.1312 10.0161 13.8763 10.4625L12.9528 12.0791C12.6978 12.5254 12.1331 12.6784 11.6914 12.4207L10.599 11.7833C10.0887 12.2224 9.50857 12.5813 8.86374 12.8121V13.6041C8.86374 14.1195 8.45033 14.5375 7.94026 14.5375H6.09341C5.58351 14.5375 5.17009 14.1195 5.17009 13.6041V12.8121C4.52526 12.5813 3.9451 12.2224 3.4347 11.7833L2.34241 12.4207C1.90069 12.6784 1.33594 12.5254 1.08095 12.0791L0.157546 10.4625C-0.0974309 10.0161 0.0539047 9.44528 0.495541 9.18756L1.57677 8.5566C1.51617 8.22529 1.47637 7.88678 1.47637 7.53755C1.47637 7.18817 1.51617 6.84966 1.57677 6.51837L0.495541 5.88736C0.0539047 5.62967 -0.0974309 5.05876 0.157546 4.61249L1.08095 2.99587C1.33594 2.54941 1.90069 2.39639 2.34241 2.65422L3.4347 3.29165C3.9451 2.85243 4.52526 2.49362 5.17009 2.26292V1.47085C5.17009 0.955432 5.58351 0.537537 6.09341 0.537537H7.94026C8.45033 0.537537 8.86374 0.955432 8.86374 1.47085V2.26292C9.50857 2.49362 10.0887 2.85243 10.599 3.29165L11.6914 2.65422C12.1331 2.39639 12.6978 2.54941 12.9528 2.99587L13.8763 4.61249C14.1312 5.05876 13.9799 5.62967 13.5382 5.88736ZM12.8457 4.67491L12.384 3.86658C12.2564 3.6435 11.9741 3.56689 11.7533 3.69582L10.4704 4.44445C9.81926 3.70206 8.93932 3.16953 7.94026 2.96454V1.93748C7.94026 1.67975 7.73355 1.47085 7.47858 1.47085H6.55518C6.3001 1.47085 6.09341 1.67975 6.09341 1.93748V2.96454C5.09443 3.16953 4.21449 3.70206 3.5634 4.44445L2.28055 3.69582C2.05969 3.56689 1.77732 3.6435 1.64978 3.86658L1.18816 4.67491C1.06063 4.89812 1.1363 5.18365 1.35707 5.31244L2.64509 6.06403C2.49167 6.52822 2.39976 7.021 2.39976 7.53755C2.39976 8.05397 2.49167 8.54668 2.64509 9.01098L1.35707 9.76252C1.1363 9.89146 1.06063 10.1768 1.18816 10.4L1.64978 11.2082C1.77732 11.4314 2.05969 11.5079 2.28055 11.379L3.56332 10.6305C4.21449 11.3729 5.09443 11.9054 6.09341 12.1104V13.1375C6.09341 13.3952 6.3001 13.6041 6.55518 13.6041H7.47858C7.73355 13.6041 7.94026 13.3952 7.94026 13.1375V12.1104C8.93932 11.9054 9.81926 11.3729 10.4704 10.6305L11.7533 11.379C11.9741 11.5079 12.2564 11.4314 12.384 11.2082L12.8457 10.4C12.9732 10.1768 12.8974 9.89146 12.6767 9.76252L11.3887 9.01098C11.5422 8.54668 11.634 8.05397 11.634 7.53755C11.634 7.021 11.5422 6.52822 11.3887 6.06403L12.6767 5.31244C12.8974 5.18365 12.9732 4.89812 12.8457 4.67491ZM7.01688 9.87072C5.74185 9.87072 4.70833 8.82612 4.70833 7.53755C4.70833 6.24871 5.74185 5.20411 7.01688 5.20411C8.29182 5.20411 9.32543 6.24871 9.32543 7.53755C9.32543 8.82612 8.29182 9.87072 7.01688 9.87072ZM7.01688 6.13747C6.25191 6.13747 5.63179 6.76427 5.63179 7.53755C5.63179 8.31065 6.25191 8.93736 7.01688 8.93736C7.78184 8.93736 8.40196 8.31065 8.40196 7.53755C8.40196 6.76427 7.78184 6.13747 7.01688 6.13747Z" fill="white"/>
</symbol>
<symbol id="facebook" viewBox="0 0 22 23">
<path fill-rule="evenodd" clip-rule="evenodd" d="M11 1.49999C16.5229 1.49999 21 5.97716 21 11.5C21 17.0229 16.5229 21.5 11 21.5C5.47712 21.5 0.999966 17.0229 0.999966 11.5C0.999966 5.97716 5.47712 1.49999 11 1.49999Z" fill="#E8E8EB"/>
<path opacity="0.5" fill-rule="evenodd" clip-rule="evenodd" d="M9.49374 17.4833H11.6746V11.431H13.1962L13.3584 9.405H11.6746C11.6746 9.405 11.6746 8.64854 11.6746 8.25095C11.6746 7.7733 11.7614 7.5842 12.1781 7.5842C12.5135 7.5842 13.3584 7.5842 13.3584 7.5842V5.48153C13.3584 5.48153 12.114 5.48153 11.8483 5.48153C10.2254 5.48153 9.49374 6.27332 9.49374 7.78946C9.49374 9.11002 9.49374 9.405 9.49374 9.405H8.35953V11.4567H9.49374V17.4833Z" fill="black"/>
</symbol>
<symbol id="clip" viewBox="0 0 13 20">
<path opacity="0.4" fill-rule="evenodd" clip-rule="evenodd" d="M0.998384 3.75004C0.998384 1.67898 3.01311 -1.19805e-05 5.49831 -1.19805e-05C7.98361 -1.19805e-05 9.99825 1.67898 9.99825 3.75004V15.0001C9.99825 16.3808 8.6551 17.4999 6.99827 17.4999C5.34144 17.4999 3.99829 16.3808 3.99829 15.0001V5.00006H5.49831V15.0001C5.49831 15.6904 6.16982 16.2501 6.99827 16.2501C7.82673 16.2501 8.49831 15.6904 8.49831 15.0001V3.75004C8.49831 2.3693 7.15515 1.25003 5.49831 1.25003C3.8414 1.25003 2.49825 2.3693 2.49825 3.75004V15.0001C2.49825 17.0712 4.51299 18.7501 6.99827 18.7501C9.48355 18.7501 11.4983 17.0712 11.4983 15.0001V2.50005H12.9982V15.625C12.6285 18.0907 10.0575 20.0001 6.99827 20.0001C3.9392 20.0001 1.36814 18.0907 0.998209 15.625L0.998384 3.75004Z" fill="black"/>
</symbol>
<symbol id="star" viewBox="0 0 14 14">
<path opacity="0.4" fill-rule="evenodd" clip-rule="evenodd" d="M10.5064 8.93376L11.3335 14L6.99999 11.6071L2.66645 14L3.49356 8.93376L0 5.35673L4.82921 4.61997L6.99999 3.05176e-05L9.17085 4.61997L14 5.35673L10.5064 8.93376ZM8.62828 5.38872L6.99999 1.88673L5.35717 5.38872L1.57221 5.88105L4.37026 8.73726L3.74992 12.4141L6.99999 10.5919L10.2091 12.4278L9.62964 8.751L12.4004 5.92383L8.62828 5.38872Z" fill="black"/>
</symbol>
</svg>