<svg display="none" xmlns="http://www.w3.org/2000/svg">
<symbol id="bell" viewBox="0 0 13 14">
<path opacity="0.4" d="M8.77466 12.1334C8.55945 13.1983 7.62301 13.9999 6.49999 13.9999C5.37696 13.9999 4.44052 13.1983 4.2254 12.1334H0L1.8571 8.40001V4.66662C1.8571 2.08935 3.93584 0 6.49999 0C9.06421 0 11.1429 2.08935 11.1429 4.66662V8.40001L13 12.1334H8.77466ZM6.49999 13.0667C7.10557 13.0667 7.61566 12.676 7.8076 12.1334H5.19246C5.38431 12.676 5.89441 13.0667 6.49999 13.0667ZM10.2143 8.40001V4.66662C10.2143 2.60491 8.55135 0.933364 6.49999 0.933364C4.44861 0.933364 2.7857 2.60491 2.7857 4.66662V8.40001L1.39281 11.2001H11.6071L10.2143 8.40001Z" fill="black"/>
</symbol>
<symbol id="twitter" viewBox="0 0 22 22">
<path fill-rule="evenodd" clip-rule="evenodd" fill="#E8E8EB" d="M11,0c6.1,0,11,4.9,11,11c0,6.1-4.9,11-11,11C4.9,22,0,17.1,0,11
	C0,4.9,4.9,0,11,0z"/>
<path opacity="0.5" fill-rule="evenodd" clip-rule="evenodd" enable-background="new    " d="M5.2,14.7c1.1,0.6,2.4,1,3.8,1
	c4.6,0,7.2-3.6,7-6.8c0.5-0.3,0.9-0.7,1.2-1.2c-0.4,0.2-0.9,0.3-1.4,0.4c0.5-0.3,0.9-0.7,1.1-1.3c-0.5,0.3-1,0.4-1.6,0.6
	c-0.4-0.4-1.1-0.7-1.8-0.7c-1.6,0-2.8,1.4-2.4,2.8c-2-0.1-3.9-1-5.1-2.4c-0.6,1-0.3,2.4,0.8,3c-0.4,0-0.8-0.1-1.1-0.3
	c0,1.1,0.8,2,2,2.3c-0.3,0.1-0.7,0.1-1.1,0c0.3,0.9,1.2,1.6,2.3,1.6C7.8,14.5,6.5,14.9,5.2,14.7z"/>
</symbol>
<symbol id="smile" viewBox="0 0 512 512">
<path opacity="0.4" d="m256 512c-68.38 0-132.667-26.629-181.02-74.98-48.351-48.353-74.98-112.64-74.98-181.02s26.629-132.667 74.98-181.02c48.353-48.351 112.64-74.98 181.02-74.98s132.667 26.629 181.02 74.98c48.351 48.353 74.98 112.64 74.98 181.02s-26.629 132.667-74.98 181.02c-48.353 48.351-112.64 74.98-181.02 74.98zm0-472c-119.103 0-216 96.897-216 216s96.897 216 216 216 216-96.897 216-216-96.897-216-216-216zm93.737 260.188c-9.319-5.931-21.681-3.184-27.61 6.136-.247.387-25.137 38.737-67.127 38.737s-66.88-38.35-67.127-38.737c-5.93-9.319-18.291-12.066-27.61-6.136s-12.066 18.292-6.136 27.61c1.488 2.338 37.172 57.263 100.873 57.263s99.385-54.924 100.873-57.263c5.93-9.319 3.183-21.68-6.136-27.61zm-181.737-135.188c13.807 0 25 11.193 25 25s-11.193 25-25 25-25-11.193-25-25 11.193-25 25-25zm150 25c0 13.807 11.193 25 25 25s25-11.193 25-25-11.193-25-25-25-25 11.193-25 25z"/>
</symbol>
<symbol id="search" viewBox="0 0 15 14">
<path opacity="0.5" d="M14.3637 13.866C14.1867 14.04 13.9 14.04 13.723 13.866L10.0951 10.2958C9.0828 11.1041 7.79397 11.5901 6.38873 11.5901C3.13649 11.5901 0.5 8.99556 0.5 5.79508C0.5 2.59454 3.13649 3.05176e-05 6.38873 3.05176e-05C9.64097 3.05176e-05 12.2776 2.59454 12.2776 5.79508C12.2776 7.29154 11.6962 8.65109 10.7499 9.67925L14.3637 13.2354C14.5406 13.4097 14.5406 13.6919 14.3637 13.866ZM6.38873 0.891622C3.63675 0.891622 1.40588 3.08689 1.40588 5.79508C1.40588 8.50324 3.63675 10.6986 6.38873 10.6986C9.14063 10.6986 11.3715 8.50324 11.3715 5.79508C11.3715 3.08689 9.14063 0.891622 6.38873 0.891622Z" fill="black"/>
</symbol>
<symbol id="person" viewBox="0 0 10 14">
<path opacity="0.4" d="M6.90903 13.5001H2.59084C1.15999 13.5001 0 12.4088 0 11.0625V9.43756C0 8.37044 0.733572 7.47328 1.74853 7.14311C1.1957 6.44139 0.863583 5.54255 0.863583 4.56261C0.863583 2.3189 2.60361 0.5 4.75002 0.5C6.89635 0.5 8.63629 2.3189 8.63629 4.56261C8.63629 5.54255 8.30418 6.44139 7.75143 7.14311C8.76639 7.47328 9.49996 8.37044 9.49996 9.43756V11.0625C9.49996 12.4088 8.33997 13.5001 6.90903 13.5001ZM7.7727 4.56261C7.7727 2.76761 6.41945 1.31253 4.75002 1.31253C3.0806 1.31253 1.72733 2.76761 1.72733 4.56261C1.72733 6.35747 3.0806 7.81255 4.75002 7.81255C6.41945 7.81255 7.7727 6.35747 7.7727 4.56261ZM8.63629 9.64073C8.63629 8.77713 7.93968 8.05759 7.00592 7.86628C6.36947 8.34212 5.59216 8.62502 4.75002 8.62502C3.90788 8.62502 3.13049 8.34212 2.49404 7.86628C1.56036 8.05759 0.863583 8.77713 0.863583 9.64073V10.8594C0.863583 11.869 1.8127 12.6876 2.98346 12.6876H6.5165C7.68733 12.6876 8.63629 11.869 8.63629 10.8594V9.64073Z" fill="black"/>
</symbol>
<symbol id="microphone" viewBox="0 0 15 20">
<path opacity="0.4" d="M6.52113 20C6.18216 20 5.90737 19.7202 5.90737 19.3751C5.90737 19.03 6.18216 18.7502 6.52113 18.7502H7.13471V17.472C4.10502 17.1936 1.53995 14.8742 0.998291 11.875H2.22563C2.78422 14.3791 5.12064 16.25 7.74837 16.25C10.376 16.25 12.7124 14.3791 13.271 11.875H14.4984C13.9566 14.8742 11.3916 17.1936 8.36195 17.472V18.7502H8.97561C9.31449 18.7502 9.58929 19.03 9.58929 19.3751C9.58929 19.7202 9.31449 20 8.97561 20H6.52113ZM7.74837 15.0001C5.37599 15.0001 3.45287 13.0414 3.45287 10.6251V4.37523C3.45287 1.95895 5.37599 0 7.74837 0C10.1206 0 12.0438 1.95895 12.0438 4.37523V10.6251C12.0438 13.0414 10.1206 15.0001 7.74837 15.0001ZM10.8165 4.37523C10.8165 2.64932 9.44283 1.25003 7.74837 1.25003C6.05382 1.25003 4.68013 2.64932 4.68013 4.37523V10.6251C4.68013 12.351 6.05382 13.7501 7.74837 13.7501C9.44283 13.7501 10.8165 12.351 10.8165 10.6251V4.37523Z" fill="black"/>
</symbol>
<symbol id="linkedin" viewBox="0 0 22 22">
<path fill="#E8E8EB" d="M11,0c6.1,0,11,4.9,11,11c0,6.1-4.9,11-11,11C4.9,22,0,17.1,0,11C0,4.9,4.9,0,11,0z"/>
<path opacity="0.5" enable-background="new " d="M6.8,8.2c0.7,0,1.3-0.6,1.3-1.4c0-0.7-0.6-1.4-1.3-1.4c-0.7,0-1.3,0.6-1.3,1.4
	C5.5,7.6,6.1,8.2,6.8,8.2z M5.7,16.5H8V9.2H5.7V16.5z M13,11c-0.9,0-1.4,0.6-1.4,1.6v3.8H9.4V9.2h2.2v1c0,0,0.7-1.2,2.2-1.2
	c1.6,0,2.7,0.9,2.7,2.9v4.6h-2.3v-3.8C14.2,11.6,13.8,11,13,11z"/>
    </symbol>
<symbol id="instagram" viewBox="0 0 22 22">
<path fill="#E8E8EB" d="M11,0c6.1,0,11,4.9,11,11c0,6.1-4.9,11-11,11C4.9,22,0,17.1,0,11C0,4.9,4.9,0,11,0z"/>
<path opacity="0.5" enable-background="new" d="M13.1,8.9C12.6,8.4,11.8,8,11,8c-0.8,0-1.6,0.3-2.1,0.9H5.3V7.4
	c0-0.8,0.4-1.5,1-1.9V8h0.5V5.2c0.1,0,0.2-0.1,0.3-0.1V8h0.5V5c0,0,0,0,0,0c0,0,0,0,0,0h0.3v3h0.5V5h6.2c1.3,0,2.3,1.1,2.3,2.4h0
	v1.6H13.1z M14.1,6c-0.2,0-0.4,0.2-0.4,0.4v1.3c0,0.2,0.2,0.4,0.4,0.4h1.2c0.2,0,0.4-0.2,0.4-0.4V6.4c0-0.2-0.2-0.4-0.4-0.4H14.1z
	 M11.9,8.9c0.2,0.1,0.4,0.2,0.6,0.4c0.5,0.4,0.8,1.1,0.8,1.8c0,1.3-1,2.4-2.3,2.4c-1.2,0-2.3-1.1-2.3-2.4c0-0.7,0.3-1.3,0.8-1.8
	C9.7,9.1,9.9,9,10.1,8.9c0.3-0.1,0.6-0.2,0.9-0.2C11.3,8.7,11.6,8.8,11.9,8.9z M9.3,11.1c0,1,0.7,1.7,1.7,1.7c0.9,0,1.7-0.8,1.7-1.7
	c0-1-0.7-1.7-1.7-1.7C10.1,9.3,9.3,10.1,9.3,11.1z M14.5,17H7.5c-1.3,0-2.3-1.1-2.3-2.4V9.3h3.3c-0.3,0.5-0.5,1.1-0.5,1.8
	c0,1.7,1.3,3.1,2.9,3.1c1.6,0,2.9-1.4,2.9-3.1c0-0.7-0.2-1.3-0.5-1.8h3.4v5.4C16.7,15.9,15.7,17,14.5,17z"/>
</symbol>
<symbol id="gear" viewBox="0 0 14 15">
<path opacity="0.6" d="M13.5382 5.88736L12.457 6.51837C12.5177 6.84966 12.5575 7.18817 12.5575 7.53755C12.5575 7.88678 12.5177 8.22529 12.457 8.5566L13.5382 9.18756C13.9799 9.44528 14.1312 10.0161 13.8763 10.4625L12.9528 12.0791C12.6978 12.5254 12.1331 12.6784 11.6914 12.4207L10.599 11.7833C10.0887 12.2224 9.50857 12.5813 8.86374 12.8121V13.6041C8.86374 14.1195 8.45033 14.5375 7.94026 14.5375H6.09341C5.58351 14.5375 5.17009 14.1195 5.17009 13.6041V12.8121C4.52526 12.5813 3.9451 12.2224 3.4347 11.7833L2.34241 12.4207C1.90069 12.6784 1.33594 12.5254 1.08095 12.0791L0.157546 10.4625C-0.0974309 10.0161 0.0539047 9.44528 0.495541 9.18756L1.57677 8.5566C1.51617 8.22529 1.47637 7.88678 1.47637 7.53755C1.47637 7.18817 1.51617 6.84966 1.57677 6.51837L0.495541 5.88736C0.0539047 5.62967 -0.0974309 5.05876 0.157546 4.61249L1.08095 2.99587C1.33594 2.54941 1.90069 2.39639 2.34241 2.65422L3.4347 3.29165C3.9451 2.85243 4.52526 2.49362 5.17009 2.26292V1.47085C5.17009 0.955432 5.58351 0.537537 6.09341 0.537537H7.94026C8.45033 0.537537 8.86374 0.955432 8.86374 1.47085V2.26292C9.50857 2.49362 10.0887 2.85243 10.599 3.29165L11.6914 2.65422C12.1331 2.39639 12.6978 2.54941 12.9528 2.99587L13.8763 4.61249C14.1312 5.05876 13.9799 5.62967 13.5382 5.88736ZM12.8457 4.67491L12.384 3.86658C12.2564 3.6435 11.9741 3.56689 11.7533 3.69582L10.4704 4.44445C9.81926 3.70206 8.93932 3.16953 7.94026 2.96454V1.93748C7.94026 1.67975 7.73355 1.47085 7.47858 1.47085H6.55518C6.3001 1.47085 6.09341 1.67975 6.09341 1.93748V2.96454C5.09443 3.16953 4.21449 3.70206 3.5634 4.44445L2.28055 3.69582C2.05969 3.56689 1.77732 3.6435 1.64978 3.86658L1.18816 4.67491C1.06063 4.89812 1.1363 5.18365 1.35707 5.31244L2.64509 6.06403C2.49167 6.52822 2.39976 7.021 2.39976 7.53755C2.39976 8.05397 2.49167 8.54668 2.64509 9.01098L1.35707 9.76252C1.1363 9.89146 1.06063 10.1768 1.18816 10.4L1.64978 11.2082C1.77732 11.4314 2.05969 11.5079 2.28055 11.379L3.56332 10.6305C4.21449 11.3729 5.09443 11.9054 6.09341 12.1104V13.1375C6.09341 13.3952 6.3001 13.6041 6.55518 13.6041H7.47858C7.73355 13.6041 7.94026 13.3952 7.94026 13.1375V12.1104C8.93932 11.9054 9.81926 11.3729 10.4704 10.6305L11.7533 11.379C11.9741 11.5079 12.2564 11.4314 12.384 11.2082L12.8457 10.4C12.9732 10.1768 12.8974 9.89146 12.6767 9.76252L11.3887 9.01098C11.5422 8.54668 11.634 8.05397 11.634 7.53755C11.634 7.021 11.5422 6.52822 11.3887 6.06403L12.6767 5.31244C12.8974 5.18365 12.9732 4.89812 12.8457 4.67491ZM7.01688 9.87072C5.74185 9.87072 4.70833 8.82612 4.70833 7.53755C4.70833 6.24871 5.74185 5.20411 7.01688 5.20411C8.29182 5.20411 9.32543 6.24871 9.32543 7.53755C9.32543 8.82612 8.29182 9.87072 7.01688 9.87072ZM7.01688 6.13747C6.25191 6.13747 5.63179 6.76427 5.63179 7.53755C5.63179 8.31065 6.25191 8.93736 7.01688 8.93736C7.78184 8.93736 8.40196 8.31065 8.40196 7.53755C8.40196 6.76427 7.78184 6.13747 7.01688 6.13747Z" fill="white"/>
</symbol>
<symbol id="facebook" viewBox="0 0 22 22">
<path fill="#E8E8EB" d="M11,0c6.1,0,11,4.9,11,11c0,6.1-4.9,11-11,11C4.9,22,0,17.1,0,11C0,4.9,4.9,0,11,0z"/>
<path opacity="0.5" enable-background="new" d="M9.6,17h2.2v-6.1h1.5l0.2-2h-1.7c0,0,0-0.8,0-1.2c0-0.5,0.1-0.7,0.5-0.7
	c0.3,0,1.2,0,1.2,0V5c0,0-1.2,0-1.5,0c-1.6,0-2.4,0.8-2.4,2.3c0,1.3,0,1.6,0,1.6H8.5V11h1.1V17z"/>
</symbol>
<symbol id="clip" viewBox="0 0 13 20">
<path opacity="0.4" d="M0.998384 3.75004C0.998384 1.67898 3.01311 -1.19805e-05 5.49831 -1.19805e-05C7.98361 -1.19805e-05 9.99825 1.67898 9.99825 3.75004V15.0001C9.99825 16.3808 8.6551 17.4999 6.99827 17.4999C5.34144 17.4999 3.99829 16.3808 3.99829 15.0001V5.00006H5.49831V15.0001C5.49831 15.6904 6.16982 16.2501 6.99827 16.2501C7.82673 16.2501 8.49831 15.6904 8.49831 15.0001V3.75004C8.49831 2.3693 7.15515 1.25003 5.49831 1.25003C3.8414 1.25003 2.49825 2.3693 2.49825 3.75004V15.0001C2.49825 17.0712 4.51299 18.7501 6.99827 18.7501C9.48355 18.7501 11.4983 17.0712 11.4983 15.0001V2.50005H12.9982V15.625C12.6285 18.0907 10.0575 20.0001 6.99827 20.0001C3.9392 20.0001 1.36814 18.0907 0.998209 15.625L0.998384 3.75004Z" fill="black"/>
</symbol>
<symbol id="star" viewBox="0 0 14 14">
<path opacity="0.4" d="M10.5064 8.93376L11.3335 14L6.99999 11.6071L2.66645 14L3.49356 8.93376L0 5.35673L4.82921 4.61997L6.99999 3.05176e-05L9.17085 4.61997L14 5.35673L10.5064 8.93376ZM8.62828 5.38872L6.99999 1.88673L5.35717 5.38872L1.57221 5.88105L4.37026 8.73726L3.74992 12.4141L6.99999 10.5919L10.2091 12.4278L9.62964 8.751L12.4004 5.92383L8.62828 5.38872Z" fill="black"/>
</symbol>
<symbol id="plus" viewBox="0 0 16 16">
<path opacity="0.4" d="M14.8239 9.46631H9.46672V14.8238C9.46672 15.4151 8.98705 15.895 8.39536 15.895C7.80366 15.895 7.32391 15.4151 7.32391 14.8238V9.46631H1.96681C1.37503 9.46631 0.895264 8.98672 0.895264 8.39505C0.895264 7.80343 1.37503 7.32369 1.96681 7.32369H7.32391V1.96637C7.32391 1.3747 7.80366 0.89502 8.39536 0.89502C8.98705 0.89502 9.46672 1.3747 9.46672 1.96637V7.32369H14.8239C15.4157 7.32369 15.8953 7.80343 15.8953 8.39505C15.8953 8.98672 15.4157 9.46631 14.8239 9.46631Z" fill="white"/>
</symbol>
<symbol id="dots" viewBox="0 0 5 18">
<path opacity="0.3" d="M2.5,0.5L2.5,0.5c1.1,0,2,0.9,2,2l0,0c0,1.1-0.9,2-2,2l0,0c-1.1,0-2-0.9-2-2l0,0C0.5,1.4,1.4,0.5,2.5,0.5z"/>
<path opacity="0.3" d="M2.5,13.5L2.5,13.5c1.1,0,2,0.9,2,2l0,0c0,1.1-0.9,2-2,2l0,0c-1.1,0-2-0.9-2-2l0,0C0.5,14.4,1.4,13.5,2.5,13.5z"/>
<path opacity="0.3" d="M2.5,7L2.5,7c1.1,0,2,0.9,2,2l0,0c0,1.1-0.9,2-2,2l0,0c-1.1,0-2-0.9-2-2l0,0C0.5,7.9,1.4,7,2.5,7z"/>
</symbol>
</svg>