<?xml version="1.0" encoding="utf-8"?>
<!-- Generator: Adobe Illustrator 24.1.1, SVG Export Plug-In . SVG Version: 6.00 Build 0)  -->
<svg version="1.1" id="Слой_1" xmlns="http://www.w3.org/2000/svg" xmlns:xlink="http://www.w3.org/1999/xlink" x="0px" y="0px"
	 viewBox="0 0 22 22" enable-background="new 0 0 22 22" xml:space="preserve">
<path fill-rule="evenodd" clip-rule="evenodd" fill="#E8E8EB" d="M11,0c6.1,0,11,4.9,11,11c0,6.1-4.9,11-11,11C4.9,22,0,17.1,0,11
	C0,4.9,4.9,0,11,0z"/>
<path opacity="0.5" fill-rule="evenodd" clip-rule="evenodd" enable-background="new    " d="M5.2,14.7c1.1,0.6,2.4,1,3.8,1
	c4.6,0,7.2-3.6,7-6.8c0.5-0.3,0.9-0.7,1.2-1.2c-0.4,0.2-0.9,0.3-1.4,0.4c0.5-0.3,0.9-0.7,1.1-1.3c-0.5,0.3-1,0.4-1.6,0.6
	c-0.4-0.4-1.1-0.7-1.8-0.7c-1.6,0-2.8,1.4-2.4,2.8c-2-0.1-3.9-1-5.1-2.4c-0.6,1-0.3,2.4,0.8,3c-0.4,0-0.8-0.1-1.1-0.3
	c0,1.1,0.8,2,2,2.3c-0.3,0.1-0.7,0.1-1.1,0c0.3,0.9,1.2,1.6,2.3,1.6C7.8,14.5,6.5,14.9,5.2,14.7z"/>
</svg>
